<svg xmlns="http://www.w3.org/2000/svg" viewBox="0 0 512 512">
  <rect width="512" height="512" fill="#002E6E" rx="100"/>
  <path fill="#ffffff" d="M256 64C150 64 64 150 64 256s86 192 192 192 192-86 192-192S362 64 256 64zM256 416c-88.4 0-160-71.6-160-160S167.6 96 256 96s160 71.6 160 160-71.6 160-160 160zm0-256c-17.7 0-32 14.3-32 32v64h-64c-17.7 0-32 14.3-32 32s14.3 32 32 32h64v64c0 17.7 14.3 32 32 32s32-14.3 32-32v-64h64c17.7 0 32-14.3 32-32s-14.3-32-32-32h-64v-64c0-17.7-14.3-32-32-32z"/>
</svg>
